<svg width="247" height="90" viewBox="0 0 247 90" fill="none" xmlns="http://www.w3.org/2000/svg">
<g clip-path="url(#clip0)">
<path d="M134.443 34.895L123.344 57.2859L111.809 34.8465H115.154V32.8595H111.809L117.431 22.9725H129.596L134.491 32.8595H130.856V34.895H134.443ZM123.344 11.2924L128.772 20.8885H118.449L123.344 11.2924ZM140.113 32.8595L123.49 0L105.897 32.8595H102.698V34.895H105.897L123.49 68.0452L139.968 34.9435H143.312V32.811L140.113 32.8595Z" fill="white"/>
<path d="M10.6139 83.8449L8.33603 78.853L6.00969 83.8449H10.6139ZM11.4863 85.7835H5.08885L4.11955 87.7706C3.97415 88.0614 3.92569 88.2552 3.92569 88.4006C3.92569 88.6914 4.16801 88.9337 4.6042 89.0307V89.3699H0V89.0307C0.290792 88.9822 0.484653 88.8853 0.630049 88.7399C0.775444 88.5945 0.92084 88.3522 1.1147 87.916L6.30049 77.1567C6.44588 76.8174 6.54281 76.5266 6.54281 76.3328C6.54281 75.9935 6.34895 75.7997 5.96123 75.6543V75.315H10.9532V75.6543C10.5654 75.7512 10.3231 75.9935 10.3231 76.2843C10.3231 76.4782 10.3716 76.7205 10.517 76.9628L15.8966 87.819C16.1389 88.2552 16.3328 88.5945 16.4782 88.7399C16.6721 88.8853 16.8659 89.0307 17.1567 89.0791V89.4184H11.9709V89.0791C12.4071 88.9822 12.6494 88.7883 12.6494 88.4491C12.6494 88.3037 12.601 88.1098 12.4556 87.819L11.4863 85.7835Z" fill="white"/>
<path d="M21.5187 82.5363H25.4444C26.1713 82.5363 26.656 82.4879 26.9468 82.3425C27.383 82.1486 27.5768 81.7609 27.5768 81.2278C27.5768 80.6947 27.383 80.3069 26.9468 80.1131C26.656 79.9677 26.1713 79.9192 25.4444 79.9192H21.5187V82.5363ZM21.5187 84.6204V88.3037C21.5187 88.4976 21.5671 88.6914 21.6641 88.7884C21.761 88.8853 21.9549 88.9822 22.1972 89.0792V89.3699H18.1261V89.0792C18.3684 89.0307 18.5138 88.9338 18.6592 88.7884C18.7561 88.6914 18.8046 88.4976 18.8046 88.3037V78.853C18.8046 78.6591 18.7561 78.4653 18.6592 78.3683C18.5623 78.2714 18.3684 78.1745 18.1261 78.0775V77.7867H25.6382C27.1406 77.7867 28.2553 78.0291 28.9823 78.4653C29.4185 78.7076 29.7578 79.0953 30.0001 79.58C30.2424 80.0646 30.3878 80.5977 30.3878 81.1793C30.3878 82.3425 30.0001 83.1664 29.2246 83.748C28.4492 84.3296 27.2376 84.5719 25.6382 84.5719L21.5187 84.6204Z" fill="white"/>
<path d="M35.2827 82.5363H39.2084C39.9354 82.5363 40.42 82.4879 40.7108 82.3425C41.0985 82.1486 41.3409 81.7609 41.3409 81.2278C41.3409 80.6947 41.147 80.3069 40.7108 80.1131C40.42 79.9677 39.9354 79.9192 39.2084 79.9192H35.2827V82.5363ZM35.2827 84.6204V88.3037C35.2827 88.4976 35.3312 88.6914 35.4281 88.7884C35.525 88.8853 35.7189 88.9822 35.9612 89.0792V89.3699H31.8901V89.0792C32.1325 89.0307 32.2779 88.9338 32.4233 88.7884C32.5202 88.6914 32.5686 88.4976 32.5686 88.3037V78.853C32.5686 78.6591 32.5202 78.4653 32.4233 78.3683C32.3263 78.2714 32.1325 78.1745 31.8901 78.0775V77.7867H39.4023C40.9047 77.7867 42.0194 78.0291 42.7464 78.4653C43.1825 78.7076 43.5218 79.0953 43.7641 79.58C44.0065 80.0646 44.1518 80.5977 44.1518 81.1793C44.1518 82.3425 43.7641 83.1664 42.9887 83.748C42.2132 84.3296 41.0016 84.5719 39.4023 84.5719L35.2827 84.6204Z" fill="white"/>
<path d="M48.9983 87.2859H55.4442C55.6865 87.2859 55.8319 87.2375 55.9288 87.1406C56.0257 87.0436 56.1227 86.8498 56.2196 86.6074H56.5104V90H56.2196C56.1711 89.7577 56.0742 89.5638 55.9288 89.4669C55.8319 89.37 55.638 89.3215 55.4442 89.3215H45.6057V89.0307C45.848 88.9822 45.9934 88.8853 46.1388 88.7399C46.2358 88.643 46.2842 88.4491 46.2842 88.2553V78.8045C46.2842 78.6107 46.2358 78.4168 46.1388 78.3199C46.0419 78.2229 45.848 78.126 45.6057 78.0291V77.7383H49.6768V78.0291C49.4345 78.0775 49.2406 78.1745 49.1437 78.3199C49.0467 78.4168 48.9983 78.6107 48.9983 78.8045V87.2859Z" fill="white"/>
<path d="M61.1146 78.853V88.2552C61.1146 88.4491 61.1631 88.643 61.26 88.7399C61.3569 88.8368 61.5508 88.9338 61.7931 89.0307V89.3215H57.722V89.0307C57.9644 88.9822 58.1098 88.8853 58.2552 88.7399C58.3521 88.643 58.4006 88.4491 58.4006 88.2552V78.8045C58.4006 78.6107 58.3521 78.4168 58.2552 78.3199C58.1582 78.2229 57.9644 78.126 57.722 78.0291V77.7383H61.7931V78.0291C61.5508 78.0775 61.3569 78.1745 61.26 78.3199C61.1631 78.5137 61.1146 78.6591 61.1146 78.853Z" fill="white"/>
<path d="M67.2213 84.475V87.286H74.5396C74.7334 87.286 74.9273 87.2375 75.0242 87.1406C75.1211 87.0436 75.2181 86.8498 75.315 86.6074H75.6058V90H75.315C75.2665 89.7577 75.1696 89.6123 75.0242 89.4669C74.9273 89.37 74.7334 89.3215 74.5396 89.3215H63.7803V89.0307C64.0226 88.9822 64.168 88.8853 64.3134 88.7399C64.4103 88.643 64.4588 88.4491 64.4588 88.2553V78.8045C64.4588 78.6107 64.4103 78.4168 64.3134 78.3199C64.2165 78.223 64.0226 78.126 63.7803 78.0291V77.7383H74.2003C74.4426 77.7383 74.588 77.6898 74.685 77.5929C74.7819 77.496 74.8788 77.3021 74.9757 77.0598H75.2665V80.4524H74.9757C74.9273 80.21 74.8304 80.0162 74.685 79.9192C74.588 79.8223 74.3942 79.7738 74.2003 79.7738H67.1728V82.294H71.5347C71.7286 82.294 71.9224 82.2456 72.0194 82.1486C72.1163 82.0517 72.2132 81.8578 72.3102 81.6155H72.601V84.9596H72.3102C72.2617 84.7173 72.1648 84.5234 72.0194 84.4265C71.9224 84.3296 71.7286 84.2811 71.5347 84.2811L67.2213 84.475Z" fill="white"/>
<path d="M80.7916 87.2859H83.748C85.105 87.2859 86.0743 86.9951 86.7044 86.3651C87.3344 85.735 87.6737 84.8142 87.6737 83.6026C87.6737 82.3909 87.3344 81.5186 86.7044 80.8401C86.3651 80.5008 85.9774 80.2585 85.5412 80.1131C85.0566 79.9677 84.475 79.8708 83.748 79.8708H80.7916V87.2859ZM78.0291 88.3037V78.853C78.0291 78.6591 77.9806 78.4653 77.8837 78.3683C77.7868 78.2714 77.5929 78.1745 77.3506 78.0775V77.7867H84.1357C85.5412 77.7867 86.6559 77.9806 87.4798 78.3199C88.643 78.8045 89.4184 79.6284 89.9516 80.7916C90.2908 81.567 90.4847 82.5363 90.4847 83.6026C90.4847 85.5897 89.9031 87.0436 88.7399 88.0614C88.2068 88.4976 87.5768 88.8368 86.8498 89.0307C86.1228 89.2245 85.2504 89.3215 84.1842 89.3215H77.399V89.0307C77.6414 88.9822 77.7868 88.8853 77.9322 88.7399C77.9806 88.6914 78.0291 88.546 78.0291 88.3037Z" fill="white"/>
<path d="M104.685 85.2988L108.417 77.0598C108.562 76.7205 108.659 76.4297 108.659 76.2358C108.659 75.9451 108.417 75.7512 107.981 75.6543V75.315H112.779V75.6543C112.488 75.7027 112.246 75.7997 112.149 75.8966C112.052 76.042 111.809 76.3812 111.519 77.0113L106.624 87.5283C106.43 87.9644 106.333 88.2552 106.333 88.4006C106.333 88.7399 106.527 88.9337 106.963 89.0307V89.3699H102.116V89.0307C102.553 88.9822 102.746 88.7399 102.746 88.4006C102.746 88.2552 102.649 87.9644 102.456 87.5283L97.5606 77.0113C97.2698 76.3812 97.076 75.9935 96.9306 75.8966C96.8337 75.7512 96.5913 75.7027 96.3005 75.6543V75.315H101.292V75.6543C100.856 75.7512 100.614 75.9451 100.614 76.2358C100.614 76.4297 100.711 76.7205 100.856 77.0598L104.685 85.2988Z" fill="white"/>
<path d="M119.661 84.8627L117.771 81.1309L115.977 84.8627H119.661ZM120.485 86.462H115.202L114.62 87.7221C114.475 88.0129 114.427 88.2553 114.427 88.4491C114.427 88.7884 114.669 88.9822 115.105 89.0792V89.37H110.889V89.0792C111.131 89.0307 111.325 88.9822 111.47 88.8369C111.616 88.7399 111.761 88.4976 111.906 88.1583L116.123 79.6284C116.268 79.2892 116.365 79.0469 116.365 78.8045C116.365 78.5137 116.171 78.3199 115.784 78.126V77.8352H120.242V78.126C119.855 78.2714 119.661 78.5137 119.661 78.8045C119.661 79.0469 119.758 79.2892 119.903 79.6284L124.265 87.916C124.507 88.3522 124.701 88.643 124.847 88.7884C124.992 88.9338 125.186 89.0307 125.477 89.0792V89.37H120.775V89.0792C121.212 88.9822 121.454 88.7884 121.454 88.4491C121.454 88.2553 121.357 87.9645 121.212 87.6737L120.485 86.462Z" fill="white"/>
<path d="M129.79 87.2859H136.236C136.478 87.2859 136.624 87.2375 136.721 87.1406C136.818 87.0436 136.914 86.8498 137.011 86.6074H137.302V90H137.011C136.963 89.7577 136.866 89.5638 136.721 89.4669C136.624 89.37 136.43 89.3215 136.236 89.3215H126.349V89.0307C126.591 88.9822 126.737 88.8853 126.882 88.7399C126.979 88.643 127.028 88.4491 127.028 88.2553V78.8045C127.028 78.6107 126.979 78.4168 126.882 78.3199C126.785 78.2229 126.591 78.126 126.349 78.0291V77.7383H130.42V78.0291C130.178 78.0775 129.984 78.1745 129.887 78.3199C129.79 78.4168 129.742 78.6107 129.742 78.8045L129.79 87.2859Z" fill="white"/>
<path d="M150.63 78.853V84.9596C150.63 86.3651 150.339 87.3829 149.806 88.0129C148.934 89.0307 147.237 89.5638 144.814 89.5638C143.166 89.5638 141.858 89.3215 140.84 88.7884C140.113 88.4006 139.628 87.916 139.338 87.2375C139.095 86.6074 138.95 85.832 138.95 84.9111V78.8045C138.95 78.6107 138.901 78.4168 138.804 78.3199C138.708 78.2229 138.562 78.126 138.271 78.0291V77.7383H142.342V78.0291C142.1 78.0775 141.906 78.1745 141.809 78.3199C141.712 78.4168 141.664 78.6107 141.664 78.8045V84.378C141.664 85.0081 141.712 85.5412 141.809 85.8804C141.906 86.2197 142.1 86.5105 142.391 86.7044C142.972 87.1405 143.748 87.3829 144.814 87.3829C145.88 87.3829 146.704 87.1405 147.237 86.7044C147.528 86.462 147.722 86.2197 147.819 85.8804C147.916 85.5412 147.964 85.0565 147.964 84.378V78.8045C147.964 78.6107 147.916 78.4168 147.819 78.3199C147.722 78.2229 147.577 78.126 147.286 78.0291V77.7383H151.115V78.0291C150.872 78.0775 150.678 78.1745 150.582 78.3199C150.678 78.5137 150.63 78.6591 150.63 78.853Z" fill="white"/>
<path d="M156.494 84.475V87.286H163.813C164.006 87.286 164.2 87.2375 164.297 87.1406C164.394 87.0436 164.491 86.8498 164.588 86.6074H164.879V90H164.588C164.54 89.7577 164.443 89.6123 164.297 89.4669C164.2 89.37 164.006 89.3215 163.813 89.3215H153.053V89.0307C153.296 88.9822 153.441 88.8853 153.586 88.7399C153.683 88.643 153.732 88.4491 153.732 88.2553V78.8045C153.732 78.6107 153.683 78.4168 153.586 78.3199C153.489 78.223 153.296 78.126 153.053 78.0291V77.7383H163.473C163.716 77.7383 163.861 77.6898 163.958 77.5929C164.055 77.496 164.152 77.3021 164.249 77.0598H164.54V80.4524H164.249C164.2 80.21 164.103 80.0162 163.958 79.9192C163.861 79.8223 163.667 79.7738 163.473 79.7738H156.446V82.294H160.808C161.002 82.294 161.195 82.2456 161.292 82.1486C161.389 82.0517 161.486 81.8578 161.583 81.6155H161.874V84.9596H161.583C161.535 84.7173 161.438 84.5234 161.292 84.4265C161.195 84.3296 161.002 84.2811 160.808 84.2811L156.494 84.475Z" fill="white"/>
<path d="M184.604 84.3296H181.115C180.921 84.3296 180.727 84.378 180.63 84.475C180.533 84.5719 180.436 84.7657 180.388 85.0081H180.048V81.7124H180.388C180.436 81.9548 180.533 82.1486 180.63 82.2455C180.727 82.3425 180.872 82.3909 181.115 82.3909H187.754V82.7302C187.512 82.7787 187.318 82.8756 187.221 83.021C187.124 83.1179 187.076 83.3118 187.076 83.5056V86.3651C187.076 86.559 187.124 86.7528 187.221 86.8497C187.318 86.9467 187.512 87.0436 187.754 87.1405V87.3829C185.089 88.8853 182.52 89.6607 180 89.6607C177.722 89.6607 175.88 89.1276 174.426 88.0614C172.633 86.7044 171.712 84.8142 171.712 82.3909C171.712 80.1615 172.536 78.3683 174.136 77.0113C175.638 75.7512 177.674 75.1212 180.194 75.1212C181.018 75.1212 181.745 75.2181 182.472 75.3635C183.199 75.5089 183.974 75.7512 184.895 76.0905C185.38 76.2843 185.67 76.3813 185.913 76.3813C186.058 76.3813 186.204 76.2843 186.397 76.1389L186.688 76.2843L185.04 79.6284L184.75 79.483C184.75 79.2407 184.701 79.0953 184.653 78.9984C184.604 78.9014 184.459 78.756 184.265 78.6107C183.829 78.3199 183.247 78.0291 182.423 77.7867C181.599 77.5444 180.872 77.4475 180.145 77.4475C178.691 77.4475 177.48 77.8352 176.51 78.6591C175.396 79.58 174.863 80.8401 174.863 82.3425C174.863 83.8449 175.396 85.0081 176.462 85.9289C177.431 86.7528 178.74 87.189 180.291 87.189C181.066 87.189 181.842 87.0921 182.569 86.8982C183.344 86.7044 183.974 86.462 184.507 86.1712V84.3296H184.604Z" fill="white"/>
<path d="M193.328 84.6204V88.3037C193.328 88.4976 193.376 88.6914 193.473 88.7884C193.57 88.8853 193.764 88.9822 194.006 89.0792V89.3699H189.935V89.0792C190.178 89.0307 190.323 88.9338 190.468 88.7884C190.565 88.6914 190.614 88.4976 190.614 88.3037V78.853C190.614 78.6591 190.565 78.4653 190.468 78.3683C190.371 78.2714 190.178 78.1745 189.935 78.0775V77.7867H197.496C198.465 77.7867 199.241 77.8352 199.725 77.9321C200.258 78.0291 200.695 78.2229 201.082 78.4653C201.906 78.9984 202.342 79.8707 202.342 81.1308C202.342 82.0517 202.1 82.7787 201.567 83.3118C201.034 83.8449 200.21 84.2326 199.095 84.4265L201.276 87.4798C201.664 88.0614 202.003 88.4006 202.245 88.643C202.488 88.8368 202.73 88.9822 203.069 89.0307V89.3215H198.223V89.0307C198.562 88.9338 198.756 88.7884 198.756 88.546C198.756 88.4006 198.659 88.1583 198.417 87.8675L196.09 84.5719H193.328V84.6204ZM193.328 82.5363H197.496C198.126 82.5363 198.611 82.4879 198.901 82.3425C199.338 82.1486 199.531 81.8094 199.531 81.2278C199.531 80.7431 199.386 80.4039 199.095 80.21C198.804 80.0161 198.271 79.9192 197.496 79.9192H193.328V82.5363Z" fill="white"/>
<path d="M210.63 77.5929C212.472 77.5929 213.974 78.0775 215.234 78.9984C216.688 80.1131 217.415 81.7124 217.415 83.6995C217.415 85.5897 216.688 87.0921 215.234 88.2068C214.023 89.1276 212.52 89.6123 210.678 89.6123C208.837 89.6123 207.334 89.1276 206.123 88.2068C204.669 87.0921 203.942 85.5412 203.942 83.6026C203.942 81.6155 204.669 80.1131 206.123 78.9984C207.286 78.0775 208.837 77.5929 210.63 77.5929ZM210.63 79.7738C209.418 79.7738 208.449 80.1616 207.722 80.937C207.044 81.664 206.704 82.5363 206.704 83.6026C206.704 84.6688 207.044 85.5412 207.722 86.2682C208.449 87.0436 209.467 87.4313 210.63 87.4313C211.842 87.4313 212.811 87.0436 213.538 86.2682C214.216 85.5412 214.556 84.6688 214.556 83.6511C214.556 82.5364 214.216 81.6155 213.538 80.8885C212.811 80.1615 211.842 79.7738 210.63 79.7738Z" fill="white"/>
<path d="M231.276 78.9014V85.0081C231.276 86.4136 230.985 87.4313 230.452 88.0614C229.58 89.0792 227.884 89.6123 225.46 89.6123C223.813 89.6123 222.504 89.3699 221.486 88.8368C220.759 88.4491 220.275 87.9645 219.984 87.2859C219.742 86.6559 219.596 85.8804 219.596 84.9596V78.853C219.596 78.6591 219.548 78.4653 219.451 78.3683C219.354 78.2714 219.16 78.1745 218.918 78.0775V77.7867H222.989V78.0775C222.746 78.126 222.552 78.2229 222.456 78.3683C222.359 78.4653 222.31 78.6591 222.31 78.853V84.378C222.31 85.0081 222.359 85.5412 222.504 85.8804C222.649 86.2197 222.795 86.5105 223.086 86.7044C223.667 87.1405 224.443 87.3829 225.509 87.3829C226.575 87.3829 227.399 87.1405 227.932 86.7044C228.223 86.462 228.417 86.2197 228.514 85.8804C228.611 85.5412 228.659 85.0565 228.659 84.378V78.853C228.659 78.6591 228.611 78.4653 228.514 78.3683C228.417 78.2714 228.271 78.1745 227.981 78.0775V77.7867H231.809V78.0775C231.567 78.126 231.373 78.2229 231.276 78.3683C231.325 78.5137 231.276 78.6591 231.276 78.9014Z" fill="white"/>
<path d="M237.14 84.6204V88.3037C237.14 88.4976 237.189 88.6914 237.286 88.7884C237.383 88.8853 237.577 88.9822 237.819 89.0792V89.3699H233.748V89.0792C233.99 89.0307 234.136 88.9338 234.281 88.7884C234.378 88.6914 234.426 88.4976 234.426 88.3037V78.853C234.426 78.6591 234.378 78.4653 234.281 78.3683C234.184 78.2714 233.99 78.1745 233.748 78.0775V77.7867H241.26C242.762 77.7867 243.877 78.0291 244.604 78.4653C245.04 78.7076 245.38 79.0953 245.622 79.58C245.864 80.0646 246.01 80.5977 246.01 81.1793C246.01 82.3425 245.622 83.1664 244.846 83.748C244.071 84.3296 242.859 84.5719 241.26 84.5719H237.14V84.6204ZM237.14 82.5363H241.066C241.793 82.5363 242.278 82.4879 242.569 82.3425C242.956 82.1486 243.199 81.7609 243.199 81.2278C243.199 80.6947 243.005 80.3069 242.569 80.1131C242.278 79.9677 241.793 79.9192 241.066 79.9192H237.14V82.5363Z" fill="white"/>
</g>
<defs>
<clipPath id="clip0">
<rect width="246.01" height="90" fill="white"/>
</clipPath>
</defs>
</svg>
