<?xml version="1.0" encoding="UTF-8"?>
<svg id="Layer_1" xmlns="http://www.w3.org/2000/svg" version="1.1" viewBox="0 0 104 67">
  <!-- Generator: Adobe Illustrator 29.5.1, SVG Export Plug-In . SVG Version: 2.1.0 Build 141)  -->
  <defs>
    <style>
      .st0 {
        fill: #fff;
      }

      .st1 {
        fill: #fd5108;
      }
    </style>
  </defs>
  <path class="st0" d="M69.263,30.739c-2.533.409-3.829,2.281-3.829,5.574,0,3.314,1.725,5.529,4.37,5.529,1.231,0,2.349-.409,4.7-1.562v2.68c-2.821,1.294-4.482,1.694-6.755,1.694-2.461,0-4.192-.654-5.606-2.095-1.449-1.449-2.174-3.364-2.174-5.496,0-4.742,3.511-7.951,8.639-7.951,3.406,0,5.748,1.556,5.748,3.842,0,1.471-1.09,2.484-2.708,2.484-.83,0-1.513-.217-2.385-.724v-3.976h0ZM56.762,37.064c2.271-2.863,3.074-4.018,3.074-5.424s-1.111-2.527-2.596-2.527c-.914,0-1.738.432-2.139.881v5.833l-3.722,4.959v-11.305h-3.538l-5.882,9.751v-9.751h-2.033l-5.34,1.302v1.365l2.912.296v11.959h3.765l5.642-9.271v9.271h4.122l5.735-7.337v-.002ZM23.343,32.52c.866-.105,1.295-.155,1.703-.155,2.455,0,3.785,1.631,3.785,4.7,0,3.624-1.625,5.515-4.658,5.515-.253,0-.429,0-.83-.019v-10.04h0ZM23.343,44.255c.978.112,1.928.147,2.498.147,5.044,0,8.245-3.228,8.245-8.026,0-4.151-2.399-7.148-5.649-7.148-1.407,0-2.35.289-5.094,1.922v-1.998h-1.52l-5.859,1.78v1.435h2.426v16.73l-2.182.543v1.385h9.577v-1.385l-2.441-.543v-4.841h0Z"/>
  <path class="st1" d="M66.541,24.967h-15.978l2.722-4.513h15.978l-2.722,4.513ZM87.964,15.94h-15.978l-2.722,4.513h15.978s2.722-4.513,2.722-4.513Z"/>
</svg>