<svg id="Layer_1" data-name="Layer 1" xmlns="http://www.w3.org/2000/svg" viewBox="0 0 425.2 141.73"><defs><style>.cls-1{fill:#1d1d1b;}</style></defs><path class="cls-1" d="M77.59,95a8.16,8.16,0,0,1,3.65.55A3.25,3.25,0,0,1,83,98.61c0,3.26-2.77,5.59-6.67,5.59-.35,0-.51,0-1.41,0l-.83,4.31.15.33,1.41.11v.84H70.43v-.84l1.41-.11.36-.33,2.35-12.21-.24-.33-1.41-.11V95Zm-2.47,8.14a5.52,5.52,0,0,0,.84,0c3.17,0,5-1.61,5-4.38,0-1.94-1.1-2.86-3.43-2.86-.24,0-.26,0-1,0Z"/><path class="cls-1" d="M92.66,99.14a15.17,15.17,0,0,0-.84,3.15L91,106.18a7,7,0,0,0-.22,1.57c0,.66.37,1,1.12,1a6,6,0,0,0,1.3-.23v.66a7.37,7.37,0,0,1-2.77.78c-.91,0-1.28-.56-1.28-1.85C87.9,109.42,87,110,85.84,110c-1.83,0-3-1.48-3-3.86,0-3.87,2.69-7,6.06-7a4.36,4.36,0,0,1,2.15.51l.44-.49Zm-3.19.86a2.64,2.64,0,0,0-.36,0c-2.53,0-4.44,2.57-4.44,6,0,1.76.64,2.66,1.89,2.66.9,0,1.56-.35,2.64-1.45l1.15-5.81Z"/><path class="cls-1" d="M98.35,99.14l-.7,3c1.58-2.14,2.75-3,4-3a1.15,1.15,0,0,1,1.17,1.19,1.4,1.4,0,0,1-1.52,1.41h-.11l-.57-1.19a4.49,4.49,0,0,0-3.21,4l-.91,5.17H94.63l1.83-9-1.8-.33v-.55l3.25-.73Z"/><path class="cls-1" d="M107.7,97l-.46,2.51h3.17v.94h-3.34l-1.15,5.88a5.5,5.5,0,0,0-.13,1,1.19,1.19,0,0,0,1.34,1.3,7,7,0,0,0,2.09-.42v.7a9,9,0,0,1-3.45,1c-1.17,0-1.79-.7-1.79-2a7.17,7.17,0,0,1,.18-1.5l1.19-6-1.37.11v-.66l1.61-.7,1.1-2.2Z"/><path class="cls-1" d="M124.6,103.39c0,3.58-2.55,6.56-5.63,6.56-2.29,0-3.77-1.63-3.77-4.16,0-3.72,2.54-6.67,5.68-6.67C123.15,99.12,124.6,100.81,124.6,103.39Zm-7.53,2.31c0,2.13.77,3.37,2.12,3.37,2,0,3.54-2.54,3.54-5.73,0-2.15-.77-3.34-2.2-3.34C118.61,100,117.07,102.55,117.07,105.7Z"/><path class="cls-1" d="M131.7,94.61c-.83.55-1.49,2.24-2,5.13h3.11v1h-3.28l-.88,6.24a10.91,10.91,0,0,1-1.59,5c-1,1.58-2.39,2.55-3.5,2.55a1.11,1.11,0,0,1-1.18-1.14,1.07,1.07,0,0,1,.48-.91l2.29.6c.92-1,1.28-2.25,1.83-6l.92-6.31-1.45.15v-.73l1.67-.68c.66-3.54,2.49-5.83,4.62-5.83,1,0,1.83.57,1.83,1.32,0,.55-.38,1-1.08,1.12Z"/><path class="cls-1" d="M141.25,97l-.46,2.51H144v.94h-3.35l-1.14,5.88a5.5,5.5,0,0,0-.13,1,1.19,1.19,0,0,0,1.34,1.3,7,7,0,0,0,2.09-.42v.7a9,9,0,0,1-3.45,1c-1.17,0-1.79-.7-1.79-2a7.17,7.17,0,0,1,.18-1.5l1.19-6-1.37.11v-.66l1.61-.7,1.1-2.2Z"/><path class="cls-1" d="M149.33,93.55c-.4,1.57-.64,2.66-.88,3.9l-.73,3.76c2-1.56,3.08-2.09,4.29-2.09a1.67,1.67,0,0,1,1.78,1.76,8.6,8.6,0,0,1-.3,2l-.77,3.41a6.78,6.78,0,0,0-.23,1.43,1,1,0,0,0,1.13,1.1,5,5,0,0,0,1.23-.2v.6a7.65,7.65,0,0,1-2.71.7c-1,0-1.54-.46-1.54-1.36a4.74,4.74,0,0,1,.16-1.17l.94-4.07a6.39,6.39,0,0,0,.22-1.47c0-.86-.39-1.35-1.1-1.35-.88,0-2,.6-3.34,1.81l-1.37,7.46h-1.87l3-14.75-2.07-.21v-.58l3.45-.66Z"/><path class="cls-1" d="M163.71,108a6.12,6.12,0,0,1-4.26,2c-2.09,0-3.35-1.48-3.35-4a7.22,7.22,0,0,1,2.71-5.72,5,5,0,0,1,2.92-1.14A2.1,2.1,0,0,1,164,101.3c0,2-2.14,3.25-6,3.56a8.07,8.07,0,0,0-.06,1c0,1.8.85,2.93,2.22,2.93,1.12,0,2.15-.53,3.58-1.81Zm-2.64-4.68a2.47,2.47,0,0,0,1.32-2,1.17,1.17,0,0,0-1.16-1.21c-1.34,0-2.51,1.5-3.15,4.07A6.16,6.16,0,0,0,161.07,103.28Z"/><path class="cls-1" d="M176,95a8.13,8.13,0,0,1,3.65.55,3.24,3.24,0,0,1,1.76,3.08c0,3.26-2.77,5.59-6.66,5.59-.36,0-.51,0-1.41,0l-.84,4.31.16.33,1.4.11v.84h-5.21v-.84l1.41-.11.35-.33L173,96.26l-.24-.33-1.41-.11V95Zm-2.46,8.14a5.4,5.4,0,0,0,.83,0c3.17,0,5-1.61,5-4.38,0-1.94-1.1-2.86-3.44-2.86-.24,0-.26,0-1,0Z"/><path class="cls-1" d="M185.47,99.12l.49,8.67c2.42-4.6,3-5.7,4-8.16l1.32-.16c.14,2.75.29,4.91.6,8.63.51-.69.73-1,1.08-1.48a19.75,19.75,0,0,0,2.48-4.44L195,99.6a1.42,1.42,0,0,1,1.1-.48,1.1,1.1,0,0,1,1.17,1.17c0,1.56-1.19,3.54-5.65,9.46h-1.28l-.53-7.68c-1,2-1.85,3.58-4.2,7.68h-1.43l.17-.49-.59-8.71-1.63-.2v-.53l2.53-.74Z"/><path class="cls-1" d="M210.35,98.86h-.92V96.74l-.18-.41a4.82,4.82,0,0,0-2.31-.55c-3.76,0-6.64,3.58-6.64,8.25,0,3.16,1.61,4.93,4.51,4.93a6.71,6.71,0,0,0,1.94-.29l.41-.38,1-2.53h1l-.6,3.48a13.83,13.83,0,0,1-4.35.77c-3.65,0-6-2.35-6-6.09a9,9,0,0,1,8.83-9.2,11.71,11.71,0,0,1,4,.75Z"/><path class="cls-1" d="M219.51,99.14l-.4,2.11c2-1.6,3.12-2.13,4.33-2.13a1.69,1.69,0,0,1,1.79,1.74,9.24,9.24,0,0,1-.31,2l-.75,3.41a7.52,7.52,0,0,0-.24,1.45,1,1,0,0,0,1.12,1.08,4.81,4.81,0,0,0,1.23-.2v.62a7.16,7.16,0,0,1-2.73.68c-1,0-1.51-.46-1.51-1.34a4.85,4.85,0,0,1,.17-1.19l.95-4.07a6.81,6.81,0,0,0,.2-1.45c0-.9-.38-1.37-1.1-1.37-.91,0-1.94.55-3.35,1.83l-1.36,7.44h-1.87l1.82-9-1.8-.33v-.55l3.26-.73Z"/><path class="cls-1" d="M235.15,108a6.16,6.16,0,0,1-4.27,2c-2.09,0-3.35-1.48-3.35-4a7.25,7.25,0,0,1,2.71-5.72,5.07,5.07,0,0,1,2.93-1.14,2.09,2.09,0,0,1,2.24,2.18c0,2-2.13,3.25-6,3.56a6.45,6.45,0,0,0-.07,1c0,1.8.86,2.93,2.22,2.93,1.12,0,2.16-.53,3.59-1.81Zm-2.64-4.68a2.47,2.47,0,0,0,1.32-2,1.17,1.17,0,0,0-1.17-1.21c-1.34,0-2.51,1.5-3.14,4.07A6.19,6.19,0,0,0,232.51,103.28Z"/><path class="cls-1" d="M241,97l-.47,2.51h3.17v.94h-3.34l-1.15,5.88a6.56,6.56,0,0,0-.13,1,1.19,1.19,0,0,0,1.34,1.3,7,7,0,0,0,2.09-.42v.7a8.93,8.93,0,0,1-3.45,1c-1.17,0-1.78-.7-1.78-2a7.06,7.06,0,0,1,.17-1.5l1.19-6-1.36.11v-.66l1.6-.7,1.1-2.2Z"/><path class="cls-1" d="M247.69,99.12l.48,8.67c2.42-4.6,3-5.7,4.05-8.16l1.32-.16c.13,2.75.29,4.91.59,8.63.51-.69.73-1,1.08-1.48a19.86,19.86,0,0,0,2.49-4.44l-.44-2.58a1.41,1.41,0,0,1,1.1-.48,1.09,1.09,0,0,1,1.16,1.17c0,1.56-1.18,3.54-5.65,9.46h-1.28l-.52-7.68c-1,2-1.85,3.58-4.21,7.68h-1.43l.18-.49-.6-8.71-1.62-.2v-.53l2.53-.74Z"/><path class="cls-1" d="M269.12,103.39c0,3.58-2.56,6.56-5.64,6.56-2.28,0-3.76-1.63-3.76-4.16,0-3.72,2.53-6.67,5.68-6.67C267.66,99.12,269.12,100.81,269.12,103.39Zm-7.53,2.31c0,2.13.77,3.37,2.11,3.37,2,0,3.55-2.54,3.55-5.73,0-2.15-.77-3.34-2.2-3.34C263.13,100,261.59,102.55,261.59,105.7Z"/><path class="cls-1" d="M274.2,99.14l-.71,3c1.59-2.14,2.75-3,4-3a1.14,1.14,0,0,1,1.16,1.19,1.4,1.4,0,0,1-1.52,1.41H277l-.57-1.19a4.51,4.51,0,0,0-3.21,4l-.9,5.17h-1.85l1.83-9-1.81-.33v-.55l3.26-.73Z"/><path class="cls-1" d="M283.74,93.55l-2.35,11,4.07-4.2a3,3,0,0,1,2-1.19,1.19,1.19,0,0,1,1.23,1.14c0,.6-.35,1-1.21,1.37l-.79-.86a33.77,33.77,0,0,0-2.84,2.38,36,36,0,0,0,2,4.11c.62,1,1.32,1.54,2.09,1.54a4.57,4.57,0,0,0,1.13-.15v.61a10.46,10.46,0,0,1-2.62.6c-.82,0-1.46-.55-2-1.7l-1.87-3.78-1.25,1.14-.71,4.23h-1.82l3-14.83-2-.13v-.58l3.46-.66Z"/><path class="cls-1" d="M258,72.68l8.9,1.39c2.88.44,4.45,1.66,4.45,3.84,0,3.14-2.53,5.23-6.28,5.23-4.37,0-7.68-3-7.68-7A11.06,11.06,0,0,1,258,72.68ZM176.15,57v9.5a12.56,12.56,0,0,1-5,1.23,4.34,4.34,0,0,1-4.63-4.54c0-2.27,1.14-3.84,3.67-4.88C171.7,57.67,172.31,57.59,176.15,57Zm159.48,6.41A9.1,9.1,0,0,1,330,65.7a5,5,0,0,1-5.23-5.15c0-3,1.4-4.53,3.93-6.19Zm-100.52-10H224.9c.18-6,1.75-8.55,5.32-8.55C233.63,44.85,234.93,47.12,235.11,53.4Zm29,5.85c-2.71,0-4.36-2.88-4.36-7.51,0-4.27,1.74-7.06,4.44-7.06s4.45,2.53,4.45,6.63C268.6,56.28,266.86,59.25,264.07,59.25Zm54.07-13.52V42.5H304.62v3.23l3.41.52.61.78-6.55,15.79L295.29,47l.52-.78,3.67-.52V42.5h-27A23.33,23.33,0,0,0,263.63,41c-9.33,0-15.09,4.27-15.09,11.16,0,4.88,2.44,7.76,8.29,9.77-3,2.09-4.1,3.75-4.1,5.93a8.56,8.56,0,0,0,1.13,3.75c-4.27.09-6.8,2.44-6.8,6.37,0,5.75,5.49,9.07,15.18,9.07,11.33,0,19.53-5,19.53-11.78,0-5.32-4.71-7.67-18.23-9l-2.79-.26a7.22,7.22,0,0,1,0-3.84,19.46,19.46,0,0,0,3.05.17c9.6,0,15.35-3.92,15.35-10.55a9.57,9.57,0,0,0-1.59-5.41h5.87L297,74.94a13.36,13.36,0,0,1-4.1,5.67l-4.36-4.79a7,7,0,0,0-4.36,6.28,5,5,0,0,0,5.23,5.32c5.06,0,9.16-5.06,12.65-12.91l12.64-28.17ZM231,40.84c-10.81,0-17.18,6.54-17.18,16.66,0,9.94,6.19,16.22,17.18,16.22,5.41,0,9.16-1,14.74-3.66V64.22c-4.62,2.44-7.5,3.4-11.69,3.4-6,0-9-3.32-9.42-10.21h21.28v-.87C245.92,46.69,240.69,40.84,231,40.84Zm-43.52,28.7-.7-.87V54.36c0-6.37-.52-8.11-2.79-10.29s-6.11-3.23-11-3.23c-9.07,0-16.31,3.49-16.31,7.94,0,1.74,1,2.53,3.84,2.53h7.58V44.59c5.67,0,8,1.83,8,6.28V52.7c-10.64,2.36-15.26,3.67-17.27,5.15a9,9,0,0,0-3.75,7.41c0,5.15,3.84,8.73,9.24,8.73,3.41,0,6.46-1.14,11.69-4.37l.87,3.58h14.13V69.8ZM148.85,41.1a33.47,33.47,0,0,0-8.55,7.07l.61-7.33h-3.75l-11.51,3.84v3h4.62V68.67l-.7.87-3.4.26v3.4h20.32V69.8l-4.79-.26-.79-.87V50.35a11.56,11.56,0,0,1,1.57-.09c3.05,0,4.71,1.14,6,4.27H153l1.83-12.29c-1.49-1.05-2.36-1.22-5-1.22A5.46,5.46,0,0,0,148.85,41.1ZM86,52.88c-3.31-1.31-4.53-2.36-4.53-4.19,0-2.18,1.83-3.58,4.8-3.58a10.45,10.45,0,0,1,4.71,1.23l.87.87.78,5h4.62V42.5c-6-1.31-8.72-1.66-12.21-1.66-8.54,0-14.21,3.93-14.21,9.94,0,4.45,3,6.89,13.08,11.17C87,63.17,88,64.13,88,66c0,2.36-1.83,3.75-5.06,3.75a14.66,14.66,0,0,1-6.45-1.57l-.7-.78-.7-5.85H70.44V72.15C77,73.55,79.77,74,84,74,92.5,74,98.7,69.54,98.7,63.43,98.7,58.72,96.26,56.71,86,52.88Zm246.4-17.79c2.09,0,3.05,1.65,3.05,3.48,0,2.61-1.64,4-4.15,5.48C330,42.41,329,41,329,38.84S330.35,35.09,332.36,35.09ZM204.5,42.5v-9h-5.76l-4,7.32-5.41,3.49v2.88h4.53V66.05c0,5.14,2.8,7.67,8.47,7.67,3.31,0,6.1-.69,11.16-2.79V67.27a22.71,22.71,0,0,1-3.23.35c-4.36,0-5.75-1.22-5.75-5.5V47.21h9V42.5Zm-89.58,0v-9h-5.76l-4,7.32-5.41,3.49v2.88h4.54V66.05c0,5.14,2.79,7.67,8.46,7.67,3.31,0,6.1-.69,10.81-2.79V67.27a13.34,13.34,0,0,1-2.87.35c-4.36,0-5.76-1.22-5.76-5.5V47.21h8.63V42.5ZM347.1,64.43l5.67-4.66V49.39l-10.61,8.67-6.39-8.24c4.09-2.62,7.84-5.58,7.84-11.6a10.69,10.69,0,0,0-11.16-11.07c-6.63,0-11.95,4.62-11.95,11.6,0,4.3,1.77,7.07,3.6,9.49-4.56,2.72-8.49,6.21-8.49,12.58,0,7.41,5.32,13.08,14.31,13.08a15.41,15.41,0,0,0,10.55-4l2.62,3.31H353.9Z"/></svg>